<!DOCTYPE svg PUBLIC "-//W3C//DTD SVG 20010904//EN" "http://www.w3.org/TR/2001/REC-SVG-20010904/DTD/svg10.dtd">
<svg version="1.0" xmlns="http://www.w3.org/2000/svg" width="376px" height="301px" viewBox="0 0 3760 3010" preserveAspectRatio="xMidYMid meet">
<g id="layer101" fill="#F4E7D3" stroke="none">
 <path d="M0 1510 l0 -1500 190 0 190 0 0 40 0 40 -150 0 -150 0 0 1420 0 1420 150 0 150 0 0 40 0 40 -190 0 -190 0 0 -1500z"/>
 <path d="M3380 2970 l0 -40 150 0 150 0 0 -1420 0 -1420 -150 0 -150 0 0 -40 0 -40 190 0 190 0 0 1500 0 1500 -190 0 -190 0 0 -40z"/>
 <path d="M1510 2420 c0 -6 9 -45 20 -88 30 -117 49 -240 61 -398 18 -215 4 -281 -119 -579 -71 -172 -86 -248 -79 -404 7 -168 37 -281 90 -339 l20 -22 377 0 377 0 21 23 c11 12 29 42 40 67 38 89 47 151 47 310 0 177 -5 197 -91 401 -68 162 -90 230 -104 315 -20 120 5 390 55 602 14 57 25 108 25 113 0 5 -151 9 -370 9 -246 0 -370 -3 -370 -10z m556 -172 c-28 -133 -39 -252 -40 -403 -1 -200 3 -221 101 -465 61 -153 93 -247 93 -277 0 -10 -48 -13 -205 -13 l-205 0 0 -70 0 -70 210 0 211 0 -7 -62 c-4 -35 -12 -81 -18 -103 l-12 -40 -314 0 -314 0 -12 40 c-6 22 -14 68 -18 103 l-7 62 71 0 70 0 0 70 0 70 -65 0 c-45 0 -65 4 -65 13 0 30 32 124 93 277 98 244 102 264 101 465 -1 150 -13 273 -40 403 l-6 32 192 0 193 0 -7 -32z"/>
 </g>
</svg>